<svg xmlns="http://www.w3.org/2000/svg" version="1.1" xmlns:xlink="http://www.w3.org/1999/xlink" xmlns:svgjs="http://svgjs.dev/svgjs" width="1440" height="560" preserveAspectRatio="none" viewBox="0 0 1440 560"><g mask="url(&quot;#SvgjsMask1037&quot;)" fill="none"><rect width="1440" height="560" x="0" y="0" fill="#1e3266"></rect><path d="M1464 560L0 560 L0 454.95Q28.46 411.41, 72 439.87Q149.21 397.08, 192 474.29Q200.76 411.05, 264 419.81Q333.34 369.15, 384 438.5Q429.24 411.74, 456 456.98Q500.85 429.83, 528 474.68Q549.64 424.32, 600 445.96Q647.38 373.34, 720 420.72Q802.51 383.24, 840 465.75Q888.55 394.31, 960 442.86Q987.78 398.64, 1032 426.43Q1114.41 388.84, 1152 471.25Q1197.81 397.06, 1272 442.86Q1319.41 370.27, 1392 417.69Q1435.36 389.04, 1464 432.4z" fill="rgba(37, 70, 125, 1)"></path><path d="M1488 560L0 560 L0 506.18Q62.94 449.12, 120 512.05Q159.78 431.83, 240 471.61Q282.61 442.22, 312 484.83Q378.7 431.53, 432 498.23Q501.72 447.95, 552 517.68Q570.37 464.04, 624 482.41Q668.45 454.87, 696 499.32Q763 446.32, 816 513.32Q858.76 484.09, 888 526.85Q902.49 469.34, 960 483.82Q1001.51 453.33, 1032 494.84Q1083.13 473.97, 1104 525.09Q1154.9 455.99, 1224 506.89Q1239.4 450.29, 1296 465.7Q1339.62 437.32, 1368 480.94Q1451.77 444.71, 1488 528.47z" fill="rgba(53, 108, 177, 1)"></path><path d="M1464 560L0 560 L0 560.93Q42.66 531.59, 72 574.24Q120.18 502.42, 192 550.6Q241.59 480.19, 312 529.78Q369.63 515.41, 384 573.05Q437.21 506.26, 504 559.47Q553.67 489.14, 624 538.81Q675.34 470.15, 744 521.49Q830.17 487.66, 864 573.84Q910.1 499.94, 984 546.05Q1037.1 479.14, 1104 532.24Q1155.52 463.76, 1224 515.28Q1301.52 472.8, 1344 550.32Q1397.31 483.63, 1464 536.94z" fill="rgba(255, 255, 255, 1)"></path></g><defs><mask id="SvgjsMask1037"><rect width="1440" height="560" fill="#ffffff"></rect></mask></defs></svg>